<?xml version="1.0" standalone="no"?>
<!DOCTYPE svg PUBLIC "-//W3C//DTD SVG 20010904//EN"
 "http://www.w3.org/TR/2001/REC-SVG-20010904/DTD/svg10.dtd">
<svg version="1.0" xmlns="http://www.w3.org/2000/svg"
 width="1020.000000pt" height="1020.000000pt" viewBox="0 0 1020.000000 1020.000000"
 preserveAspectRatio="xMidYMid meet">
<metadata>
Created by potrace 1.11, written by Peter Selinger 2001-2013
</metadata>
<g transform="translate(0.000000,1020.000000) scale(0.100000,-0.100000)"
fill="#000000" stroke="none">
<path d="M4848 10065 c-2 -1 -61 -6 -133 -10 -71 -4 -146 -8 -165 -10 -66 -6
-155 -16 -170 -20 -8 -2 -42 -7 -75 -10 -33 -4 -67 -8 -75 -10 -8 -3 -33 -7
-55 -11 -39 -5 -224 -41 -255 -49 -312 -76 -551 -153 -786 -251 -309 -128
-639 -304 -880 -469 -36 -25 -69 -45 -74 -45 -4 0 -10 -3 -12 -8 -1 -4 -34
-30 -73 -57 -296 -209 -672 -555 -902 -832 -264 -316 -502 -680 -681 -1038
-70 -141 -210 -470 -226 -530 -1 -5 -24 -75 -50 -154 -40 -122 -122 -436 -140
-536 -3 -16 -8 -41 -10 -55 -3 -14 -8 -41 -10 -60 -3 -19 -7 -44 -10 -55 -4
-21 -16 -101 -22 -145 -2 -14 -6 -52 -9 -85 -4 -33 -8 -71 -10 -83 -13 -78
-20 -264 -20 -522 0 -339 6 -441 40 -725 11 -86 38 -234 81 -444 38 -184 138
-502 225 -713 28 -68 56 -136 62 -153 41 -104 239 -483 311 -595 327 -508 639
-878 1036 -1225 443 -388 1005 -712 1605 -925 122 -44 229 -50 301 -16 28 13
64 40 81 61 57 68 58 83 55 614 -2 267 -5 488 -7 491 -2 4 -48 -1 -102 -11
-54 -9 -129 -20 -168 -24 -77 -7 -350 -8 -405 -1 -19 3 -64 7 -100 11 -36 3
-72 8 -80 10 -8 2 -39 7 -69 10 -30 4 -65 11 -78 16 -13 5 -23 7 -23 4 0 -6
-126 39 -191 68 -80 35 -193 112 -266 181 -87 81 -159 195 -228 361 -69 166
-92 212 -163 324 -110 173 -231 304 -340 367 -130 76 -224 171 -238 242 -5 25
-1 33 25 53 35 26 39 27 137 35 170 14 364 -57 559 -205 116 -88 211 -197 292
-336 125 -213 285 -366 475 -454 118 -55 197 -72 331 -71 254 1 413 30 602
108 48 20 54 28 55 67 1 17 12 71 25 120 14 50 27 98 29 107 9 32 60 142 90
193 34 58 85 124 135 178 19 20 31 37 26 38 -6 1 -21 2 -35 3 -57 6 -167 21
-225 31 -11 1 -38 6 -60 10 -22 3 -60 10 -85 15 -25 6 -57 12 -72 15 -262 49
-534 150 -808 301 -236 129 -460 332 -600 540 -61 92 -168 290 -183 339 -3 11
-22 62 -42 113 -30 78 -76 223 -90 282 -66 279 -88 481 -89 805 0 244 6 316
41 480 8 39 16 77 18 85 3 8 9 35 15 60 16 66 84 235 135 335 58 113 156 260
240 358 l65 77 -31 92 c-18 51 -33 102 -34 113 -1 11 -3 20 -4 20 -4 0 -11 36
-25 135 -14 92 -16 415 -3 450 4 8 9 32 12 53 23 163 113 462 143 481 6 4 40
9 75 12 155 13 397 -58 768 -226 164 -74 268 -132 454 -252 53 -35 95 -56 105
-52 51 19 394 94 510 110 14 2 59 8 100 14 200 28 393 41 608 42 135 0 415
-10 449 -16 10 -2 52 -7 93 -11 41 -4 82 -8 90 -10 8 -1 40 -6 70 -10 30 -4
64 -9 75 -11 11 -2 47 -9 80 -14 91 -16 240 -49 330 -72 44 -11 86 -21 94 -22
8 -2 73 35 145 80 215 137 375 222 551 294 11 4 37 16 58 25 99 43 261 97 331
110 16 3 33 8 38 11 19 12 195 16 234 5 40 -11 42 -13 72 -94 17 -45 42 -122
56 -172 21 -79 31 -121 51 -225 14 -71 20 -171 19 -320 -1 -130 -6 -186 -23
-265 -29 -130 -26 -119 -55 -204 l-26 -75 34 -35 c146 -154 303 -422 379 -651
56 -169 76 -263 97 -450 8 -75 5 -500 -4 -575 -3 -22 -8 -65 -11 -95 -7 -66
-11 -90 -30 -195 -8 -44 -16 -91 -19 -105 -35 -204 -195 -622 -287 -751 -10
-15 -19 -30 -19 -34 0 -29 -245 -303 -340 -380 -157 -127 -389 -261 -602 -349
-120 -49 -294 -107 -368 -121 -8 -2 -33 -8 -55 -14 -65 -17 -198 -42 -295 -56
-162 -23 -253 -35 -262 -35 -6 0 12 -24 42 -52 142 -142 249 -383 275 -626 3
-26 8 -69 11 -97 3 -27 5 -400 5 -828 1 -763 1 -779 21 -828 30 -72 87 -125
149 -138 71 -15 127 -14 190 6 30 9 59 17 64 19 31 6 291 111 416 167 122 55
318 152 379 188 8 5 62 36 120 70 932 549 1705 1460 2121 2501 100 250 219
663 253 878 3 19 8 46 11 60 3 14 10 59 16 100 5 41 12 86 14 100 34 238 45
404 44 710 0 250 -7 400 -25 550 -2 19 -6 59 -10 88 -3 29 -7 61 -9 72 -2 10
-6 40 -10 67 -6 40 -20 124 -41 238 -11 58 -56 257 -69 300 -8 28 -26 91 -40
140 -51 172 -121 363 -213 580 -36 86 -184 375 -242 475 -188 323 -412 636
-629 875 -60 66 -333 339 -391 390 -107 95 -312 259 -410 328 -569 400 -1119
656 -1731 806 -112 27 -220 52 -239 55 -19 3 -71 12 -115 20 -142 27 -254 40
-510 62 -60 5 -572 13 -577 9z"/>
</g>
</svg>
